<svg width="20" height="20" viewBox="0 0 20 20" fill="none" xmlns="http://www.w3.org/2000/svg">
<path fill-rule="evenodd" clip-rule="evenodd" d="M4.71963 6.99689C4.26365 7.37688 4 7.93977 4 8.53333V15.5966C4 16.1489 4.44772 16.5966 5 16.5966H7C7.55228 16.5966 8 16.1489 8 15.5966V12.5966C8 11.492 8.89543 10.5966 10 10.5966C11.1046 10.5966 12 11.492 12 12.5966V15.5966C12 16.1489 12.4477 16.5966 13 16.5966H15C15.5523 16.5966 16 16.1489 16 15.5966V8.53333C16 7.93977 15.7364 7.37688 15.2804 6.99689L11.2804 3.66356C10.5387 3.04548 9.46132 3.04548 8.71963 3.66356L4.71963 6.99689Z" fill="white"/>
<path fill-rule="evenodd" clip-rule="evenodd" d="M10.8002 4.23972C10.3367 3.85343 9.66333 3.85343 9.19977 4.23972L5.19977 7.57306C4.91478 7.81055 4.75 8.16236 4.75 8.53333V15.5966C4.75 15.7347 4.86193 15.8466 5 15.8466H7C7.13807 15.8466 7.25 15.7347 7.25 15.5966V12.5966C7.25 11.0778 8.48122 9.84658 10 9.84658C11.5188 9.84658 12.75 11.0778 12.75 12.5966V15.5966C12.75 15.7347 12.8619 15.8466 13 15.8466H15C15.1381 15.8466 15.25 15.7347 15.25 15.5966V8.53333C15.25 8.16236 15.0852 7.81055 14.8002 7.57306L10.8002 4.23972ZM8.23949 3.08739C9.25932 2.23754 10.7407 2.23754 11.7605 3.08739L15.7605 6.42073C16.3875 6.94321 16.75 7.71719 16.75 8.53333V15.5966C16.75 16.5631 15.9665 17.3466 15 17.3466H13C12.0335 17.3466 11.25 16.5631 11.25 15.5966V12.5966C11.25 11.9062 10.6904 11.3466 10 11.3466C9.30964 11.3466 8.75 11.9062 8.75 12.5966V15.5966C8.75 16.5631 7.9665 17.3466 7 17.3466H5C4.0335 17.3466 3.25 16.5631 3.25 15.5966V8.53333C3.25 7.71719 3.61251 6.94321 4.23949 6.42073L8.23949 3.08739Z" fill="#393939"/>
</svg>
