<svg width="20" height="20" viewBox="0 0 20 20" fill="none" xmlns="http://www.w3.org/2000/svg">
<path d="M15 7.83333C15 10.9915 12.1275 15.2029 10.737 17.0565C10.3622 17.5561 9.63777 17.5561 9.26302 17.0565C7.87248 15.2029 5 10.9915 5 7.83333C5 4.88781 7.23858 2.5 10 2.5C12.7614 2.5 15 4.88781 15 7.83333Z" fill="#DADCFF"/>
<path fill-rule="evenodd" clip-rule="evenodd" d="M10 3.25C7.69765 3.25 5.75 5.2557 5.75 7.83333C5.75 9.22102 6.39356 10.9276 7.27243 12.5823C8.13898 14.2138 9.1796 15.6955 9.86298 16.6065C9.90539 16.663 9.95566 16.6812 10 16.6812C10.0443 16.6812 10.0946 16.663 10.137 16.6065C10.8204 15.6955 11.861 14.2138 12.7276 12.5823C13.6064 10.9276 14.25 9.22102 14.25 7.83333C14.25 5.2557 12.3023 3.25 10 3.25ZM4.25 7.83333C4.25 4.51993 6.7795 1.75 10 1.75C13.2205 1.75 15.75 4.51993 15.75 7.83333C15.75 9.6038 14.9573 11.582 14.0523 13.2859C13.135 15.0131 12.0441 16.5639 11.3369 17.5066C10.6622 18.4061 9.33782 18.4061 8.66307 17.5066C7.9559 16.5639 6.86502 15.0131 5.94769 13.2859C5.04268 11.582 4.25 9.6038 4.25 7.83333Z" fill="#393939"/>
<circle cx="10" cy="7" r="2" fill="white"/>
<path fill-rule="evenodd" clip-rule="evenodd" d="M10 6.25C9.30964 6.25 8.75 6.80964 8.75 7.5C8.75 8.19036 9.30964 8.75 10 8.75C10.6904 8.75 11.25 8.19036 11.25 7.5C11.25 6.80964 10.6904 6.25 10 6.25ZM7.25 7.5C7.25 5.98122 8.48122 4.75 10 4.75C11.5188 4.75 12.75 5.98122 12.75 7.5C12.75 9.01878 11.5188 10.25 10 10.25C8.48122 10.25 7.25 9.01878 7.25 7.5Z" fill="#393939"/>
</svg>
