<svg viewBox="0 0 24 24" fill="none" xmlns="http://www.w3.org/2000/svg">
<path d="M21.5999 12C21.5999 17.302 17.3018 21.6 11.9999 21.6C6.69797 21.6 2.3999 17.302 2.3999 12C2.3999 6.69809 6.69797 2.40002 11.9999 2.40002C17.3018 2.40002 21.5999 6.69809 21.5999 12Z" fill="#DADCFF"/>
<path fill-rule="evenodd" clip-rule="evenodd" d="M12 3.3C7.19512 3.3 3.3 7.19512 3.3 12C3.3 16.8049 7.19512 20.7 12 20.7C16.8049 20.7 20.7 16.8049 20.7 12C20.7 7.19512 16.8049 3.3 12 3.3ZM1.5 12C1.5 6.20101 6.20101 1.5 12 1.5C17.799 1.5 22.5 6.20101 22.5 12C22.5 17.799 17.799 22.5 12 22.5C6.20101 22.5 1.5 17.799 1.5 12Z" fill="#393939"/>
<path fill-rule="evenodd" clip-rule="evenodd" d="M16.8351 8.28021C17.2327 8.63099 17.2706 9.23765 16.9198 9.63521L11.5198 15.7552C11.1701 16.1516 10.5657 16.1906 10.1678 15.8425L7.28781 13.3225C6.8888 12.9734 6.84837 12.3669 7.1975 11.9679C7.54664 11.5689 8.15313 11.5284 8.55214 11.8776L10.7127 13.768L15.4801 8.36489C15.8309 7.96733 16.4376 7.92942 16.8351 8.28021Z" fill="#393939"/>
</svg>
